<svg version="1.1" id="svg-file" viewBox="0 0 499.858 499.858" xmlns="http://www.w3.org/2000/svg"><g><path d="m425.57 81.77-72.984-72.983c-5.666-5.666-13.199-8.787-21.212-8.787h-235.872c-16.542 0-30 13.458-30 30v206.092c0 12.84 20 12.859 20 0v-206.092c0-5.514 4.486-10 10-10h232.861v56.421c0 16.542 13.458 30 30 30h55.992v363.438c0 5.514-4.486 10-10 10h-308.853c-5.514 0-10-4.486-10-10v-152.971c0-12.84-20-12.858-20 0v152.971c0 16.542 13.458 30 30 30h308.854c16.542 0 30-13.458 30-30v-366.876c0-8.013-3.12-15.546-8.786-21.213zm-77.206-5.349v-43.572l53.573 53.572h-43.573c-5.514 0-10-4.486-10-10z"/><path d="m67.783 281.693c2.986 4.565 9.356 5.751 13.86 2.761 4.531-3.008 5.791-9.343 2.77-13.86-3.028-4.527-9.336-5.801-13.87-2.77-4.529 3.028-5.783 9.34-2.76 13.869z"/><path d="m213.259 350.388c1.729 1.723 4.596 2.915 7.096 2.915l56.987-.225c5.508-.021 9.961-4.492 9.961-10v-86.089h26.327c7.85 0 12.737-9.284 8.176-15.759l-63.701-90.433c-3.879-5.504-12.453-5.532-16.352 0l-63.701 90.433c-4.521 6.418.256 15.759 8.176 15.759h24.088v86.313c0 2.66 1.059 5.21 2.943 7.086zm-7.755-113.399 44.425-63.068 44.425 63.068h-17.051c-5.522 0-10 4.477-10 10v86.128l-36.987.146v-86.275c0-5.523-4.478-10-10-10h-14.812z"/></g></svg>