<svg version="1.1" id="svg-music" viewBox="0 0 512 512" xmlns="http://www.w3.org/2000/svg"><g><g><path d="M461.319,103.04c-3.304-4.425-9.572-5.331-13.995-2.028c-4.425,3.305-5.333,9.571-2.028,13.996c69.575,93.159,59.937,225.513-22.419,307.868c-92.016,92.017-241.738,92.017-333.754,0C44.548,378.302,20,319.037,20,255.999S44.548,133.697,89.123,89.122C171.573,6.673,304.02-2.896,397.204,66.863c4.422,3.309,10.688,2.408,13.998-2.013c3.31-4.421,2.409-10.688-2.012-13.998C360.376,14.31,299.809-3.539,238.667,0.583C176.921,4.749,118.79,31.169,74.98,74.979C26.629,123.332,0,187.619,0,255.999s26.629,132.668,74.98,181.02c48.353,48.351,112.64,74.98,181.02,74.98s132.667-26.628,181.019-74.981c43.774-43.774,70.192-101.857,74.388-163.549C515.561,212.376,497.773,151.85,461.319,103.04z"/></g></g><g><g><path d="M437.123,75.083l-0.189-0.19c-3.9-3.91-10.233-3.918-14.142-0.018c-3.912,3.9-3.919,10.232-0.019,14.142l0.189,0.19c1.953,1.959,4.517,2.938,7.08,2.938c2.555,0,5.11-0.973,7.062-2.92C441.016,85.325,441.023,78.993,437.123,75.083z"/></g></g><g><g><path d="M374,218.65c-5.522,0-10,4.477-10,10v0.321c0,5.523,4.478,10,10,10c5.522,0,10-4.477,10-10v-0.321C384,223.127,379.522,218.65,374,218.65z"/></g></g><g><g><path d="M186,285.151c-5.522,0-10,4.477-10,10v26.295c-5.576-3.111-12.09-5.119-19.333-5.855c-14.165-1.441-29.62,2.176-43.502,10.186c-13.884,8.01-24.745,19.573-30.582,32.56c-6.336,14.097-6.146,28.231,0.538,39.799c6.682,11.565,18.832,18.795,34.212,20.359c2.038,0.208,4.102,0.31,6.185,0.31c12.396,0,25.433-3.638,37.317-10.496c13.884-8.01,24.745-19.573,30.582-32.56c3.276-7.29,4.792-14.587,4.583-21.537v-59.061C196,289.628,191.522,285.151,186,285.151z M173.175,367.551c-4.129,9.185-12.061,17.508-22.334,23.436c-19.822,11.435-42.901,10.127-50.402-2.856c-3.381-5.851-3.243-13.52,0.387-21.595c4.129-9.185,12.061-17.508,22.334-23.436c9.067-5.23,18.815-7.795,27.443-7.795c10.233,0,18.89,3.607,22.959,10.651C176.942,351.807,176.805,359.475,173.175,367.551z"/></g></g><g><g><path d="M186,254.009c-5.522,0-10,4.477-10,10v0.322c0,5.523,4.478,10,10,10c5.522,0,10-4.477,10-10v-0.322C196,258.486,191.522,254.009,186,254.009z"/></g></g><g><g><path d="M380.316,94.255c-2.331-1.899-5.397-2.649-8.337-2.041l-188,38.793c-4.646,0.958-7.979,5.049-7.979,9.793v92.055c0,5.525,4.478,10.002,10,10.002c5.522,0,10-4.477,10-10v-29.908l168-34.667v29.215c0,5.523,4.478,10,10,10c5.522,0,10-4.477,10-10v-95.489C384,99.001,382.647,96.154,380.316,94.255z M364,147.862l-168,34.667v-33.58l168-34.666V147.862z"/></g></g><g><g><path d="M374,249.791c-5.522,0-10,4.477-10,10v26.295c-5.576-3.111-12.09-5.118-19.333-5.855c-14.169-1.442-29.62,2.176-43.502,10.186c-13.884,8.01-24.745,19.574-30.582,32.56c-6.336,14.097-6.146,28.231,0.538,39.799c6.682,11.564,18.832,18.795,34.212,20.359c2.038,0.207,4.102,0.31,6.185,0.31c12.396,0,25.433-3.638,37.317-10.496c13.884-8.01,24.745-19.573,30.582-32.56c3.276-7.289,4.792-14.586,4.583-21.536v-59.062C384,254.268,379.522,249.791,374,249.791z M361.175,332.191c-4.129,9.185-12.061,17.508-22.334,23.436c-19.821,11.434-42.902,10.126-50.402-2.856c-3.381-5.851-3.243-13.52,0.387-21.595c4.129-9.185,12.061-17.508,22.334-23.436c9.067-5.231,18.815-7.795,27.443-7.795c10.233,0,18.89,3.607,22.959,10.651C364.942,316.447,364.805,324.116,361.175,332.191z"/></g></g></svg>