<svg version="1.1" id="svg-zip" viewBox="0 0 512 512" xmlns="http://www.w3.org/2000/svg"><g><g><path d="m432.082 260.933c-5.522 0-10 4.478-10 10v156.847h-78.064c.395-8.881-.508-17.962-2.832-26.551l-23.806-88.292v-55.481-.002c0-20.126-16.374-36.5-36.5-36.5h-.002-31.816v-32.646h25.131c5.522 0 10-4.478 10-10v-56.608c0-5.522-4.478-10-10-10h-26.386v-34.376h26.386c5.522 0 10-4.478 10-10v-47.324h137.889v162.771c0 5.522 4.478 10 10 10s10-4.478 10-10v-172.771c0-5.522-4.478-10-10-10h-273.729c-2.6 0-5.181 1.061-7.031 2.889l-78.439 77.55c-1.872 1.847-2.965 4.485-2.965 7.111v350.229c0 5.522 4.477 10 10 10h91.269c10.437 37.013 44.507 64.221 84.813 64.221s74.376-27.208 84.813-64.221h91.269c5.522 0 10-4.478 10-10v-166.846c0-5.523-4.478-10-10-10zm-283.724-226.985v43.603h-44.103zm-58.44 63.603h68.44c5.523 0 10-4.478 10-10v-67.551h95.835v37.324h-26.386c-5.523 0-10 4.478-10 10v54.375c0 5.522 4.477 10 10 10h26.386v36.608h-25.131c-5.523 0-10 4.478-10 10v42.701c-19.21 1.031-34.523 16.982-34.523 36.445v.002 55.485l-23.463 87.284c-2.402 8.963-3.497 18.282-3.094 27.555h-78.064zm166.082 394.449c-33.814 0-61.938-24.774-67.206-57.122-1.702-10.467-.588-20.621 1.964-30.822l23.439-87.199c.228-.847.343-1.719.343-2.596v-56.806c0-9.1 7.403-16.502 16.502-16.502h49.837c9.1 0 16.502 7.402 16.502 16.502v56.806c0 .879.116 1.755.345 2.604l23.875 88.567c2.355 9.729 3.222 19.482 1.61 29.427-5.261 32.357-33.391 57.141-67.211 57.141z"/><path d="m256 382.729c-22.699 0-41.167 18.468-41.167 41.167s18.467 41.166 41.167 41.166 41.167-18.467 41.167-41.166-18.467-41.167-41.167-41.167zm0 62.334c-11.671 0-21.167-9.495-21.167-21.166 0-11.672 9.495-21.167 21.167-21.167s21.167 9.495 21.167 21.167c0 11.67-9.495 21.166-21.167 21.166z"/><path d="m441.317 223.24c-2.092-5.027-8.023-7.501-13.06-5.41-5.036 2.091-7.49 8.023-5.41 13.06 2.079 5.035 8.03 7.499 13.061 5.41 5.047-2.095 7.479-8.014 5.409-13.06z"/></g></g></svg>